HIERARCHY
ROOT Hips
{
    OFFSET   0.000000   0.000000   0.000000
    CHANNELS 6 Xposition Yposition Zposition Xrotation Yrotation Zrotation
    JOINT LeftUpLeg
    {
        OFFSET   0.078795   0.000000   0.000000
        CHANNELS 3 Xrotation Yrotation Zrotation
        JOINT LeftLeg
        {
            OFFSET   0.000000  -0.427566   0.000000
            CHANNELS 3 Xrotation Yrotation Zrotation
            JOINT LeftFoot
            {
                OFFSET   0.000000  -0.394685   0.000000
                CHANNELS 3 Xrotation Yrotation Zrotation
                JOINT LeftToeBase
                {
                    OFFSET   0.000000  -0.039971   0.149173
                    CHANNELS 3 Xrotation Yrotation Zrotation
                }
            }
        }
    }
    JOINT RightUpLeg
    {
        OFFSET  -0.078795   0.000000   0.000000
        CHANNELS 3 Xrotation Yrotation Zrotation
        JOINT RightLeg
        {
            OFFSET   0.000000  -0.427566   0.000000
            CHANNELS 3 Xrotation Yrotation Zrotation
            JOINT RightFoot
            {
                OFFSET   0.000000  -0.394685   0.000000
                CHANNELS 3 Xrotation Yrotation Zrotation
                JOINT RightToeBase
                {
                    OFFSET   0.000000  -0.039971   0.149173
                    CHANNELS 3 Xrotation Yrotation Zrotation
                }
            }
        }
    }
    JOINT Spine
    {
        OFFSET   0.000000   0.001000   0.000000
        CHANNELS 3 Xrotation Yrotation Zrotation
        JOINT Spine1
        {
            OFFSET   0.000000   0.211086   0.000000
            CHANNELS 3 Xrotation Yrotation Zrotation
            JOINT Neck
            {
                OFFSET   0.000000   0.158868   0.000000
                CHANNELS 3 Xrotation Yrotation Zrotation
            }
            JOINT LeftShoulder
            {
                OFFSET   0.000000   0.158868   0.000000
                CHANNELS 3 Xrotation Yrotation Zrotation
                JOINT LeftArm
                {
                    OFFSET   0.189194  -0.000001   0.000000
                    CHANNELS 3 Xrotation Yrotation Zrotation
                    JOINT LeftForeArm
                    {
                        OFFSET   0.272680  -0.000001   0.000000
                        CHANNELS 3 Xrotation Yrotation Zrotation
                        JOINT LeftHand
                        {
                            OFFSET   0.258023  -0.000001   0.000000
                            CHANNELS 3 Xrotation Yrotation Zrotation
                        }
                    }
                }
            }
            JOINT RightShoulder
            {
                OFFSET   0.000000   0.158868   0.000000
                CHANNELS 3 Xrotation Yrotation Zrotation
                JOINT RightArm
                {
                    OFFSET  -0.189194  -0.000001   0.000000
                    CHANNELS 3 Xrotation Yrotation Zrotation
                    JOINT RightForeArm
                    {
                        OFFSET  -0.272680  -0.000001   0.000000
                        CHANNELS 3 Xrotation Yrotation Zrotation
                        JOINT RightHand
                        {
                            OFFSET  -0.258023  -0.000001   0.000000
                            CHANNELS 3 Xrotation Yrotation Zrotation
                        }
                    }
                }
            }
        }
    }
}
MOTION
Frames: 14
Frame Time:   0.016667
 -0.387137   0.900003   3.449485 -174.056568  -2.410519 -176.099575 -18.407006   5.114638  -6.711056  28.314148  -4.168338   4.565663  -1.585130  -3.231304  -0.750221   0.000000   0.000000   0.000000 -18.580278  -7.957325 -10.060037  65.481011   2.985214  -5.291567  10.203295   3.153379   9.817264   0.000000   0.000000   0.000000   1.884956   0.186883  -1.244404   7.604078   0.682407  -4.924250  12.909778  14.204980  -5.589224   0.174328   0.127309 -19.051806  17.114822 -30.075920 -46.876962   0.271371 -14.838590   3.016496   0.844500   5.829933  -8.437525  -1.285033   2.055897  19.607439  15.572258  25.227656  47.269529  -0.797611  25.961443  -5.027316   7.623617   1.523093  -2.380458
 -0.385350   0.903292   3.427224 -174.211305  -2.374273 -175.390079 -17.260890   4.257492  -6.823350  28.428951  -4.552803   4.658609  -2.697349  -3.565408  -0.791522   0.000000   0.000000   0.000000 -21.891462  -7.535302 -10.467393  65.635900   1.191009  -4.970775   7.311781   1.696705   9.242935   0.000000   0.000000   0.000000   1.877389   0.021832  -1.241315   7.576210   0.050980  -4.869630  12.798112  14.549784  -5.704850   0.217417  -0.137371 -18.970354  16.954991 -31.500541 -45.796188   0.359171 -16.077855   3.574899   0.573339   5.303082  -7.450264  -1.373821   1.833212  19.640629  15.179196  25.668550  47.368971  -0.777757  26.410571  -5.109759   8.051204   1.444591  -2.537171
 -0.383415   0.906530   3.404858 -174.370354  -2.263325 -174.806293 -15.953455   3.641794  -6.914437  28.288726  -4.824921   4.624579  -3.770814  -3.805853  -0.757180   0.000000   0.000000   0.000000 -24.968345  -7.106623 -10.723345  66.021740  -0.449432  -4.719600   4.752094   0.385555   8.474020   0.000000   0.000000   0.000000   1.862822  -0.124321  -1.238012   7.518823  -0.510849  -4.825137  12.744236  14.744288  -5.859901   0.248365  -0.378459 -18.913078  16.865353 -32.816903 -44.833007   0.453644 -17.185680   4.075993   0.300986   4.779043  -6.493034  -1.440979   1.659366  19.664401  14.955547  26.043192  47.462024  -0.762888  26.755073  -5.156829   8.390585   1.335656  -2.489735
 -0.380667   0.909184   3.381925 -174.449154  -2.381040 -174.497150 -14.477160   3.165724  -6.764313  28.002714  -5.184933   4.433178  -4.827265  -4.098254  -0.630243   0.000000   0.000000   0.000000 -27.595473  -7.159772 -10.678675  65.431127  -1.820349  -4.619531   3.421145  -0.668079   7.691469   0.000000   0.000000   0.000000   1.853239  -0.291618  -1.192971   7.472301  -1.159931  -4.618919  12.777867  14.762337  -5.905645   0.262102  -0.697890 -18.749105  16.750368 -34.124206 -43.967207   0.549822 -18.250275   4.633726   0.339996   4.274124  -5.452415  -1.477609   1.398375  19.650097  14.686301  26.116796  47.742109  -0.754997  27.141843  -5.226219   8.783541   1.356470  -2.924811
 -0.377730   0.911548   3.358823 -174.511656  -2.521155 -174.279975 -12.885770   2.881042  -6.594698  27.576767  -5.531039   4.185937  -5.867718  -4.372255  -0.464810   0.000000   0.000000   0.000000 -30.014791  -7.315741 -10.543621  64.696378  -3.057882  -4.614519   2.397808  -1.590816   6.798250   0.000000   0.000000   0.000000   1.841301  -0.453962  -1.145421   7.415469  -1.793487  -4.409128  12.853286  14.671275  -5.939832   0.266746  -1.021587 -18.563034  16.612516 -35.352385 -43.199789   0.651153 -19.268765   5.184522   0.471687   3.799815  -4.448459  -1.496326   1.144474  19.610652  14.488811  26.092256  48.070209  -0.751438  27.488252  -5.284265   9.118496   1.393641  -3.362581
 -0.374562   0.912773   3.335350 -174.535499  -2.814774 -174.089188 -11.195178   2.934238  -6.467234  27.127255  -6.047737   4.065005  -6.919439  -4.732529  -0.328283   0.000000   0.000000   0.000000 -32.039094  -7.700073 -10.381528  63.060756  -4.089986  -4.697673   1.658247  -2.361167   5.639362   0.000000   0.000000   0.000000   1.832620  -0.625315  -1.105990   7.371106  -2.467594  -4.235260  12.939888  14.403922  -5.843085   0.261665  -1.392745 -18.240311  16.196343 -36.400102 -42.650822   0.754354 -20.359111   5.798793   0.953175   3.471278  -3.651353  -1.489985   0.842230  19.469067  14.241030  25.861914  48.590772  -0.752326  27.869087  -5.365733   9.323567   1.530972  -4.117343
 -0.371350   0.913804   3.311811 -174.553414  -3.111194 -173.932762  -9.430961   3.120209  -6.378959  26.591292  -6.551339   3.925895  -7.964093  -5.078826  -0.181226   0.000000   0.000000   0.000000 -33.963235  -8.107328 -10.200284  61.415010  -5.036403  -4.861542   0.974445  -3.042081   4.390924   0.000000   0.000000   0.000000   1.821400  -0.790813  -1.070875   7.316791  -3.121304  -4.083012  13.049981  14.083120  -5.750771   0.252606  -1.757717 -17.911055  15.742108 -37.387944 -42.173538   0.867547 -21.431927   6.408974   1.472809   3.171734  -2.894161  -1.473650   0.556230  19.310846  14.060053  25.587363  49.124922  -0.755970  28.214020  -5.435737   9.474922   1.668435  -4.817553
 -0.368235   0.912692   3.287858 -174.589857  -3.420974 -173.606166  -7.665244   3.893612  -6.443406  26.239597  -7.310675   3.992270  -9.139917  -5.567967  -0.104375   0.000000   0.000000   0.000000 -35.356789  -8.342212 -10.189832  58.554741  -5.693537  -4.927482  -0.360435  -3.552905   3.411460   0.000000   0.000000   0.000000   1.808379  -0.941070  -1.085814   7.257567  -3.719381  -4.134832  13.037621  13.574208  -5.502590   0.241343  -2.109815 -17.540962  14.906091 -38.048845 -41.825666   0.977416 -22.712673   7.064081   2.007789   3.030855  -2.612764  -1.451415   0.302508  19.143777  14.028351  25.185528  49.583794  -0.769128  28.684503  -5.510418   9.484826   1.853287  -5.486192
 -0.365123   0.911422   3.263789 -174.625182  -3.709165 -173.305643  -5.842433   4.740557  -6.531817  25.830634  -8.049637   4.023734 -10.314203  -6.044647  -0.025295   0.000000   0.000000   0.000000 -36.658735  -8.534295 -10.164433  55.614984  -6.257217  -5.031645  -1.564868  -3.969627   2.498399   0.000000   0.000000   0.000000   1.792880  -1.081653  -1.104135   7.187041  -4.280431  -4.203470  13.026052  13.046889  -5.268961   0.228921  -2.444333 -17.196030  14.047587 -38.654104 -41.490662   1.099470 -24.004042   7.713140   2.478701   2.887762  -2.368828  -1.427045   0.078517  18.997925  14.090953  24.782681  49.983512  -0.784772  29.127101  -5.567289   9.475761   2.023646  -6.041193
 -0.362027   0.909257   3.239076 -174.671477  -3.926570 -173.036512  -3.948279   5.785071  -6.526879  25.392832  -8.829795   4.017441 -11.502168  -6.548593   0.040998   0.000000   0.000000   0.000000 -37.509192  -8.590380 -10.131422  51.652799  -6.544875  -5.040034  -2.008651  -4.213597   2.121380   0.000000   0.000000   0.000000   1.776534  -1.194461  -1.130277   7.113259  -4.732161  -4.306837  12.924799  12.447171  -4.987752   0.216425  -2.738964 -16.917289  13.036902 -39.030968 -41.136281   1.217821 -25.431361   8.352552   2.705908   2.742650  -2.346732  -1.410433  -0.076778  18.955670  14.371607  24.401054  50.152334  -0.806562  29.572939  -5.586346   9.463875   2.176579  -6.394251
 -0.358943   0.906978   3.214180 -174.716007  -4.116454 -172.815917  -1.994355   6.824030  -6.503525  24.868039  -9.565431   3.960134 -12.639117  -7.026421   0.104401   0.000000   0.000000   0.000000 -38.159448  -8.642673 -10.046610  47.335349  -6.726494  -5.058148  -2.218057  -4.395851   1.858969   0.000000   0.000000   0.000000   1.759680  -1.294825  -1.154080   7.036525  -5.134903  -4.402902  12.811292  11.841720  -4.714294   0.203321  -3.015687 -16.666368  11.985786 -39.327822 -40.784625   1.346882 -26.903247   8.991546   2.851287   2.583677  -2.360270  -1.394863  -0.198866  18.948934  14.735900  24.045846  50.244195  -0.829561  29.972046  -5.588211   9.446175   2.319150  -6.647681
 -0.355913   0.904978   3.188913 -174.760059  -4.197520 -172.782727   0.082202   7.582485  -6.278014  23.999232 -10.066704   3.729484 -13.477661  -7.357108   0.190434   0.000000   0.000000   0.000000 -38.124792  -8.867562  -9.732047  41.823234  -6.737841  -5.100294  -1.840182  -4.493870   1.707476   0.000000   0.000000   0.000000   1.746783  -1.362243  -1.152668   6.977653  -5.405691  -4.399648  12.666872  11.238271  -4.449903   0.190121  -3.258566 -16.468874  10.842044 -39.412037 -40.489427   1.468972 -28.478343   9.605873   2.844937   2.365897  -2.382330  -1.387088  -0.247381  19.022779  15.218529  23.828391  50.185052  -0.847051  30.173904  -5.560606   9.432920   2.448330  -6.730516
 -0.352894   0.903021   3.163578 -174.801003  -4.273533 -172.789521   2.198272   8.294868  -6.042284  23.057509 -10.519704   3.456622 -14.265749  -7.660591   0.275420   0.000000   0.000000   0.000000 -37.982257  -9.113226  -9.371868  36.129195  -6.685072  -5.144775  -1.375113  -4.568332   1.580250   0.000000   0.000000   0.000000   1.733933  -1.423536  -1.147164   6.918973  -5.652317  -4.380834  12.525123  10.651870  -4.201727   0.176518  -3.492361 -16.285507   9.687992 -39.465266 -40.184911   1.608528 -30.081882  10.230861   2.803314   2.134555  -2.395760  -1.379463  -0.277995  19.113895  15.736678  23.632283  50.091777  -0.864498  30.333623  -5.524471   9.419114   2.572408  -6.763579
 -0.349875   0.901754   3.138567 -174.853465  -4.211492 -173.163808   4.513584   8.315495  -5.546212  21.342161 -10.489187   3.029712 -14.640221  -7.603322   0.258553   0.000000   0.000000   0.000000 -36.910812  -9.532284  -8.629767  28.996539  -6.164500  -4.967533   0.353853  -4.330585   1.720902   0.000000   0.000000   0.000000   1.725238  -1.450038  -1.077349   6.882691  -5.757414  -4.105662  12.400351  10.121913  -4.016181   0.164113  -3.681910 -16.113328   8.501985 -39.258219 -40.106340   1.730018 -31.790371  10.823589   2.871835   1.866829  -2.272842  -1.371965  -0.218630  19.136317  16.166976  23.656378  50.082819  -0.860710  30.049751  -5.476687   9.283811   2.639626  -6.616496
